<svg width="129" height="123" viewBox="0 0 129 123" fill="none" xmlns="http://www.w3.org/2000/svg">
<g id="Group" filter="url(#filter0_d_430_157)">
<g id="Vector">
<mask id="path-1-inside-1_430_157" fill="white">
<path fill-rule="evenodd" clip-rule="evenodd" d="M25.9126 44.4134C26.9408 43.8189 27.8235 43.3016 28.2886 43.0258C31.1145 41.3406 38.6414 38.0065 43.08 33.9105C46.4674 30.7867 48.0725 27.2114 45.6635 23.5785C43.4739 20.2766 39.0314 19.3672 33.6444 20.1384C22.0506 21.7981 5.96098 30.9856 1.81699 35.0165C1.36483 35.4568 1.35402 36.1781 1.79431 36.6302C2.23248 37.0805 2.9538 37.0913 3.40596 36.651C7.38364 32.7838 22.838 23.9893 33.9681 22.3956C38.3186 21.7733 41.9946 22.1727 43.7628 24.8404C45.5092 27.4724 43.9898 29.9689 41.5341 32.2334C37.2152 36.2206 29.8724 39.4269 27.1199 41.0663C25.3949 42.095 18.7055 45.8322 18.2092 46.2906C17.5875 46.8642 17.839 47.479 17.9367 47.6745C18.0123 47.8261 18.4377 48.5578 19.422 48.2319C33.4602 43.5933 58.2127 46.192 77.8758 56.2451C97.3661 66.2097 111.877 83.5734 105.578 108.722C105.426 109.333 105.798 109.953 106.407 110.107C107.018 110.259 107.638 109.887 107.79 109.276C114.389 82.9255 99.334 64.6537 78.9157 54.2144C61.7076 45.4157 40.7045 42.2362 25.9126 44.4134Z"/>
</mask>
<path fill-rule="evenodd" clip-rule="evenodd" d="M25.9126 44.4134C26.9408 43.8189 27.8235 43.3016 28.2886 43.0258C31.1145 41.3406 38.6414 38.0065 43.08 33.9105C46.4674 30.7867 48.0725 27.2114 45.6635 23.5785C43.4739 20.2766 39.0314 19.3672 33.6444 20.1384C22.0506 21.7981 5.96098 30.9856 1.81699 35.0165C1.36483 35.4568 1.35402 36.1781 1.79431 36.6302C2.23248 37.0805 2.9538 37.0913 3.40596 36.651C7.38364 32.7838 22.838 23.9893 33.9681 22.3956C38.3186 21.7733 41.9946 22.1727 43.7628 24.8404C45.5092 27.4724 43.9898 29.9689 41.5341 32.2334C37.2152 36.2206 29.8724 39.4269 27.1199 41.0663C25.3949 42.095 18.7055 45.8322 18.2092 46.2906C17.5875 46.8642 17.839 47.479 17.9367 47.6745C18.0123 47.8261 18.4377 48.5578 19.422 48.2319C33.4602 43.5933 58.2127 46.192 77.8758 56.2451C97.3661 66.2097 111.877 83.5734 105.578 108.722C105.426 109.333 105.798 109.953 106.407 110.107C107.018 110.259 107.638 109.887 107.79 109.276C114.389 82.9255 99.334 64.6537 78.9157 54.2144C61.7076 45.4157 40.7045 42.2362 25.9126 44.4134Z" fill="black" stroke="black" stroke-width="2" mask="url(#path-1-inside-1_430_157)"/>
</g>
<g id="Vector_2">
<mask id="path-2-inside-2_430_157" fill="white">
<path fill-rule="evenodd" clip-rule="evenodd" d="M102.085 108.746C100.944 106.311 99.8847 103.85 98.5533 101.502C95.0072 95.2466 89.9975 89.4978 83.9127 85.6182C83.3794 85.2799 82.6752 85.4373 82.3367 85.9666C81.9983 86.4999 82.1559 87.2041 82.6851 87.5426C88.4622 91.2211 93.2038 96.6918 96.5676 102.627C98.0903 105.315 99.2528 108.157 100.598 110.931C100.667 111.069 101.214 112.293 101.401 112.519C101.832 113.049 102.349 112.993 102.585 112.937C102.783 112.892 103.009 112.791 103.222 112.572C103.395 112.392 103.645 111.972 103.859 111.34C104.551 109.318 105.488 104.369 105.728 103.573C108.476 94.448 112.564 86.4198 116.656 77.8601C116.926 77.2909 116.686 76.6085 116.119 76.3367C115.552 76.065 114.871 76.307 114.599 76.8742C110.454 85.542 106.326 93.6776 103.546 102.914C103.379 103.461 102.623 106.538 102.085 108.746Z"/>
</mask>
<path fill-rule="evenodd" clip-rule="evenodd" d="M102.085 108.746C100.944 106.311 99.8847 103.85 98.5533 101.502C95.0072 95.2466 89.9975 89.4978 83.9127 85.6182C83.3794 85.2799 82.6752 85.4373 82.3367 85.9666C81.9983 86.4999 82.1559 87.2041 82.6851 87.5426C88.4622 91.2211 93.2038 96.6918 96.5676 102.627C98.0903 105.315 99.2528 108.157 100.598 110.931C100.667 111.069 101.214 112.293 101.401 112.519C101.832 113.049 102.349 112.993 102.585 112.937C102.783 112.892 103.009 112.791 103.222 112.572C103.395 112.392 103.645 111.972 103.859 111.34C104.551 109.318 105.488 104.369 105.728 103.573C108.476 94.448 112.564 86.4198 116.656 77.8601C116.926 77.2909 116.686 76.6085 116.119 76.3367C115.552 76.065 114.871 76.307 114.599 76.8742C110.454 85.542 106.326 93.6776 103.546 102.914C103.379 103.461 102.623 106.538 102.085 108.746Z" fill="black" stroke="black" stroke-width="2" mask="url(#path-2-inside-2_430_157)"/>
</g>
</g>
<defs>
<filter id="filter0_d_430_157" x="0.470871" y="19.881" width="116.296" height="97.0906" filterUnits="userSpaceOnUse" color-interpolation-filters="sRGB">
<feFlood flood-opacity="0" result="BackgroundImageFix"/>
<feColorMatrix in="SourceAlpha" type="matrix" values="0 0 0 0 0 0 0 0 0 0 0 0 0 0 0 0 0 0 127 0" result="hardAlpha"/>
<feOffset dx="-1" dy="4"/>
<feComposite in2="hardAlpha" operator="out"/>
<feColorMatrix type="matrix" values="0 0 0 0 0 0 0 0 0 0 0 0 0 0 0 0 0 0 1 0"/>
<feBlend mode="normal" in2="BackgroundImageFix" result="effect1_dropShadow_430_157"/>
<feBlend mode="normal" in="SourceGraphic" in2="effect1_dropShadow_430_157" result="shape"/>
</filter>
</defs>
</svg>
