<svg width="73" height="70" viewBox="0 0 73 70" fill="none" xmlns="http://www.w3.org/2000/svg">
<path d="M38.618 9.26949C36.8541 12.085 39.3809 20.153 42.9485 23.1259C45.6851 25.3492 47.7098 24.3296 48.2429 20.4262C48.8554 16.3121 45.8409 10.4718 42.4095 9.00388C39.7948 7.85657 39.4801 7.91445 38.618 9.26949Z" fill="black"/>
<path d="M15.0587 11.1421C13.2948 13.9575 15.8216 22.0256 19.3891 24.9984C22.1257 27.2218 24.1505 26.2022 24.6836 22.2988C25.2961 18.1847 22.2816 12.3444 18.8502 10.8764C16.2355 9.72913 15.9207 9.78701 15.0587 11.1421Z" fill="black"/>
<path d="M5.08328 34.0269C5.80646 38.4839 14.0815 46.6915 21.4377 50.1839C23.7064 51.3164 27.6199 52.1268 31.0796 52.2753C36.5131 52.4728 37.2844 52.2917 44.3031 49.0593C51.0382 45.9574 52.0789 45.2168 55.3089 41.4649C59.4237 36.6087 63.354 26.1765 62.1062 23.2675C61.0144 20.7221 59.4292 21.9747 56.2531 28.2275C52.7367 35.0725 50.7772 37.6297 46.6851 40.5594C42.7745 43.3184 35.4609 45.4674 30.8612 45.2343C25.3965 44.9641 15.1222 39.4191 9.53555 33.7182C6.69117 30.8478 4.60683 30.9368 5.08328 34.0269Z" fill="black"/>
</svg>
