<svg width="62" height="59" viewBox="0 0 62 59" fill="none" xmlns="http://www.w3.org/2000/svg">
<path d="M43.5968 8.10258C43.1194 7.56075 39.5534 7.56355 35.5334 8.02565C29.284 8.76399 28.2674 9.15625 28.0817 10.4748C27.4859 13.7982 29.0521 14.2987 36.3181 13.1681C44.1801 11.8233 46.0353 10.6182 43.5968 8.10258Z" fill="#F5F5F5"/>
<path d="M34.7396 28.8956C26.338 24.9561 23.8764 24.5485 24.4546 27.3558C24.6894 28.4963 27.6336 30.3591 33.3052 33.0319C38.0608 35.2532 42.1636 36.9689 42.6022 36.8785C42.9531 36.8063 43.1053 35.769 42.8704 34.6285C42.5452 33.0494 40.517 31.6381 34.7396 28.8956Z" fill="#F5F5F5"/>
<path d="M27.4704 45.7828C22.5004 39.8562 16.9035 34.8817 16.0649 35.6946C14.6149 37.0906 15.9645 39.6476 20.8932 44.4853C23.5613 47.228 26.4411 50.1099 27.272 51.0362C28.1029 51.9625 29.0731 52.6772 29.5118 52.5868C31.3541 52.2074 30.4947 49.3666 27.4704 45.7828Z" fill="#F5F5F5"/>
</svg>
