<svg width="71" height="28" viewBox="0 0 71 28" fill="none" xmlns="http://www.w3.org/2000/svg">
<path d="M4.73438 25.7188C3.26562 25.6406 2.3125 25.5938 1.875 25.5781C1.4375 25.5625 1.16406 25.3789 1.05469 25.0273C0.945312 24.6758 1.01562 19.5938 1.26562 9.78125C1.29688 9.46875 1.40625 9.1875 1.59375 8.9375C1.8125 8.75 2.09375 8.67188 2.4375 8.70312L2.90625 8.9375C3.125 9.21875 3.20312 9.54688 3.14062 9.92188L2.85938 23.6328L10.1953 23.8438L10.6641 24.0781C10.8516 24.2969 10.9297 24.5781 10.8984 24.9219L10.6641 25.3906C10.2891 25.6094 9.875 25.7266 9.42188 25.7422C8.96875 25.7578 7.40625 25.75 4.73438 25.7188ZM21.8203 26.1875L21.3516 25.9531C21.1641 25.6094 21.0391 25.2422 20.9766 24.8516C20.9141 24.4609 20.8516 24.0547 20.7891 23.6328C20.0391 24.5859 19.3164 25.2109 18.6211 25.5078C17.9258 25.8047 17.2422 25.8984 16.5703 25.7891C15.8984 25.6797 15.2969 25.3164 14.7656 24.6992C14.2344 24.082 13.8906 23.4375 13.7344 22.7656C13.5781 22.0938 13.4688 21.3906 13.4062 20.6562C13.3438 19.9219 13.3281 18.7891 13.3594 17.2578C13.3906 16.7578 13.5312 16.3203 13.7812 15.9453C14.0312 15.7266 14.3281 15.6328 14.6719 15.6641L15.1406 15.8984C15.3281 16.1484 15.4062 16.4453 15.375 16.7891C15.2031 18.6641 15.1445 19.9141 15.1992 20.5391C15.2539 21.1641 15.3516 21.7344 15.4922 22.25C15.6328 22.7656 15.875 23.2031 16.2188 23.5625C16.5625 23.9219 16.9883 24.0312 17.4961 23.8906C18.0039 23.75 18.5234 23.3203 19.0547 22.6016C19.5859 21.8828 19.9297 20.9688 20.0859 19.8594C20.2422 18.75 20.4766 17.6797 20.7891 16.6484C21.0078 16.4609 21.2891 16.3828 21.6328 16.4141L22.1016 16.6484C22.3516 17.1172 22.4297 17.6641 22.3359 18.2891C22.3672 21.0078 22.4453 22.7148 22.5703 23.4102C22.6953 24.1055 22.8047 24.7969 22.8984 25.4844L22.6641 25.9531C22.4453 26.1406 22.1641 26.2188 21.8203 26.1875ZM30.0703 26.0469L29.5781 25.8125C29.2969 25.375 29.1953 24.7773 29.2734 24.0195C29.3516 23.2617 29.4219 22.4375 29.4844 21.5469C29.5469 20.6562 29.5781 19.8203 29.5781 19.0391C29.5781 18.2578 29.4961 17.7305 29.332 17.457C29.168 17.1836 28.9688 17.2266 28.7344 17.5859C28.5 17.9453 28.2031 18.4766 27.8438 19.1797C27.4844 19.8828 27.2695 20.7852 27.1992 21.8867C27.1289 22.9883 27.0156 24.1562 26.8594 25.3906C26.6406 25.5781 26.3594 25.6562 26.0156 25.625L25.5469 25.3906C25.2344 23.75 25.0078 22.0703 24.8672 20.3516C24.7266 18.6328 24.5938 16.9297 24.4688 15.2422L24.7031 14.7734C24.9531 14.5859 25.25 14.5078 25.5938 14.5391L26.0625 14.7734C26.25 15.2109 26.3594 15.6953 26.3906 16.2266C26.4219 16.7578 26.4531 17.2734 26.4844 17.7734C26.7969 17.0859 27.2031 16.4609 27.7031 15.8984C28.2031 15.3359 28.7109 15.1094 29.2266 15.2188C29.7422 15.3281 30.125 15.5195 30.375 15.793C30.625 16.0664 30.8516 16.3672 31.0547 16.6953C31.4922 16.1641 32.0391 15.8125 32.6953 15.6406C33.3516 15.4688 33.8906 15.5625 34.3125 15.9219C34.7344 16.2812 35.0234 16.75 35.1797 17.3281C35.3359 17.9062 35.4336 18.5078 35.4727 19.1328C35.5117 19.7578 35.5039 20.6953 35.4492 21.9453C35.3945 23.1953 35.3672 24.0352 35.3672 24.4648C35.3672 24.8945 35.2734 25.2969 35.0859 25.6719C34.8672 25.8594 34.5859 25.9375 34.2422 25.9062L33.7734 25.6719C33.4922 25.3281 33.3984 24.9062 33.4922 24.4062C33.6172 21.4844 33.6719 19.7188 33.6562 19.1094C33.6406 18.5 33.5586 18.043 33.4102 17.7383C33.2617 17.4336 33.0391 17.3945 32.7422 17.6211C32.4453 17.8477 32.1836 18.3203 31.957 19.0391C31.7305 19.7578 31.5469 20.7539 31.4062 22.0273C31.2656 23.3008 31.1016 24.5625 30.9141 25.8125C30.6953 26 30.4141 26.0781 30.0703 26.0469ZM45.9609 26.0469C45.7109 26.0156 45.4922 25.9219 45.3047 25.7656L44.9766 25.25C44.4453 25.5 43.9375 25.6875 43.4531 25.8125C42.9688 25.9375 42.4336 25.9922 41.8477 25.9766C41.2617 25.9609 40.7031 25.8203 40.1719 25.5547C39.6406 25.2891 39.1484 24.9414 38.6953 24.5117C38.2422 24.082 37.9453 23.5703 37.8047 22.9766C37.6641 22.3828 37.625 21.7812 37.6875 21.1719C37.75 20.5625 37.8828 20.0156 38.0859 19.5312C38.2891 19.0469 38.6016 18.6016 39.0234 18.1953C39.4453 17.7891 39.9453 17.5 40.5234 17.3281C41.1016 17.1562 41.6797 17.1094 42.2578 17.1875C42.8359 17.2656 43.3203 17.3828 43.7109 17.5391C43.7109 16.9453 43.5 16.5 43.0781 16.2031C42.6562 15.9062 42.1992 15.6797 41.707 15.5234C41.2148 15.3672 40.7344 15.3516 40.2656 15.4766C39.7969 15.6016 39.3594 15.6797 38.9531 15.7109L38.3906 15.4297C38.2031 15.2109 38.125 14.9297 38.1562 14.5859L38.4375 14.0703C38.875 13.7891 39.3672 13.625 39.9141 13.5781C40.4609 13.5312 41.0039 13.5547 41.543 13.6484C42.082 13.7422 42.7578 13.9922 43.5703 14.3984C44.3828 14.8047 44.9609 15.4062 45.3047 16.2031C45.6484 17 45.8281 18.3047 45.8438 20.1172C45.8594 21.9297 46.2109 23.6562 46.8984 25.2969L46.6641 25.7656C46.4453 25.9219 46.2109 26.0156 45.9609 26.0469ZM43.6641 23.7734L44.3203 23.2109C44.2266 22.6484 44.1641 22.1406 44.1328 21.6875C44.1016 21.2344 44.0703 20.7734 44.0391 20.3047C43.3672 19.4766 42.6484 19.0742 41.8828 19.0977C41.1172 19.1211 40.5703 19.2969 40.2422 19.625C39.9141 19.9531 39.7031 20.3438 39.6094 20.7969C39.5156 21.25 39.4922 21.6953 39.5391 22.1328C39.5859 22.5703 39.7578 22.9375 40.0547 23.2344C40.3516 23.5312 40.7188 23.7695 41.1562 23.9492C41.5938 24.1289 42.0391 24.1836 42.4922 24.1133C42.9453 24.043 43.3359 23.9297 43.6641 23.7734Z" fill="black"/>
<path d="M50.2983 0.783891C49.7863 1.11789 49.2016 1.34653 48.7673 1.77581C48.6114 1.92999 48.5037 2.12178 48.345 2.26768C48.1835 2.41612 47.9918 2.58903 47.8503 2.75374C47.5707 3.07915 47.1496 3.2526 46.8115 3.49674C46.6126 3.64035 46.2912 3.85928 46.0484 3.9219C45.9247 3.95379 45.534 4.1879 45.6364 4.26152C45.8746 4.43295 46.0431 4.663 46.2234 4.89537C46.4714 5.21493 46.7367 5.48715 46.9284 5.84586C47.1708 6.29938 47.5166 6.69132 47.7469 7.15282C47.9274 7.51465 48.0554 7.90156 48.2405 8.2631C48.4004 8.57525 48.6328 8.85097 48.7986 9.16087C48.8108 9.18372 48.9291 9.40367 48.8949 9.42729C48.8595 9.45166 48.73 9.00602 48.7225 8.96274" stroke="#001D3D" stroke-linecap="round" stroke-linejoin="round"/>
<path d="M56.1119 2.65812C55.0966 3.6906 54.0413 4.68183 53.0293 5.71826C52.4015 6.36115 51.8216 7.03275 51.2338 7.71391C50.7718 8.24935 50.2644 8.74934 49.7881 9.27054C49.6227 9.45155 49.4807 9.64707 49.3451 9.85033C49.1231 10.183 49.2994 9.76292 49.3699 9.6077" stroke="#001D3D" stroke-linecap="round" stroke-linejoin="round"/>
<path d="M57.3775 2.8518C57.6259 3.55025 57.8537 4.24417 58.1416 4.92622C58.3769 5.48362 58.3213 6.13167 58.3424 6.72195C58.3644 7.33449 58.4222 7.85751 58.5812 8.44384C58.6 8.51321 58.6659 8.69263 58.6382 8.76206C58.6249 8.79544 58.4655 8.73092 58.4382 8.72406C58.3452 8.7007 58.2102 8.73365 58.1179 8.75014C56.4439 9.04923 55.0571 9.89242 53.737 10.9121C53.5115 11.0864 53.2803 11.3764 53.0155 11.4743C52.8446 11.5375 52.6826 11.6457 52.5037 11.6609C52.3355 11.6752 52.5338 11.4666 52.6076 11.335" stroke="#001D3D" stroke-linecap="round" stroke-linejoin="round"/>
</svg>
